<svg xmlns="http://www.w3.org/2000/svg" viewBox="0 0 1024 1003.7">
	<path
		d="M0,67.7A316.8,316.8,0,0,0,99.4,51.6L217.5,12.4A242.5,242.5,0,0,1,407.7,28.3,243.3,243.3,0,0,0,534,56.2l57.3-3a243.7,243.7,0,0,1,94.6,13.9l29.2,10.5A243.2,243.2,0,0,0,829.8,89.7L960.3,72a468,468,0,0,1,63.7-4.3v936H0Z"
		style="fill: #fff"
	/>
	<path
		d="M0,133.7a389.6,389.6,0,0,0,113.5-16.9l51.3-15.6a320.9,320.9,0,0,1,150.5-8.7l121.8,22.2a230.5,230.5,0,0,0,87.6-1,229.8,229.8,0,0,1,132.9,12.2l55,22.2c74.6,30.8,132.4,12.5,206.6-3.4a505.4,505.4,0,0,1,104.8-11v870H0Z"
		style="fill: #dfedf7"
	/>
	<path
		d="M0,162.7c150.1.7,230.4-75.4,392.5-28.7l44.2,12.6a261.9,261.9,0,0,0,114.1,6.6,260.9,260.9,0,0,1,136.6,14.1l40.2,15.5c63.6,25,134.3,22.4,197.3-3.1a295.8,295.8,0,0,1,99.1-17v841H0Z"
		style="fill: #b3d2e3"
	/>
</svg>
